<svg width="30" height="31" viewBox="0 0 30 31" fill="none" xmlns="http://www.w3.org/2000/svg">
<path d="M4.87127 6.03295C4.87127 6.03295 3.30029 6.3137 3.30029 7.6337V17.2382C3.30029 22.3744 10.8766 28.0902 13.4519 29.788C13.9651 30.1296 14.6291 30.1296 15.1423 29.788C17.7176 28.0902 25.2939 22.3744 25.2939 17.2382V7.6337C25.2939 6.3137 23.723 6.03295 23.723 6.03295L15.2088 3.36356C14.615 3.1774 13.9792 3.1774 13.3855 3.36356L4.87127 6.03295Z" fill="#F0F0F0"/>
<path d="M6.77486 4.89245C6.80104 4.88761 6.8269 4.88119 6.85231 4.87322L15.3665 2.20382C15.832 2.05787 16.3306 2.05787 16.7961 2.20382L25.3102 4.87322C25.3357 4.88119 25.3615 4.88761 25.3877 4.89245C25.3888 4.89264 25.3898 4.89283 25.3909 4.89303L25.3904 4.89294L25.3896 4.89279L25.3883 4.89257L25.3916 4.89323C25.3969 4.89434 25.4073 4.89655 25.4218 4.90003C25.4512 4.90702 25.4966 4.91889 25.5527 4.93678C25.6673 4.97329 25.8136 5.03092 25.954 5.11502C26.2342 5.2828 26.4151 5.49961 26.4151 5.83576V15.4403C26.4151 16.5622 25.9993 17.7636 25.2828 18.9901C24.5686 20.2127 23.5797 21.4187 22.4941 22.5371C20.3224 24.7748 17.8261 26.5984 16.5636 27.4308L16.5613 27.4324C16.2696 27.6264 15.8929 27.6264 15.6013 27.4324L15.5989 27.4308C14.3364 26.5984 11.8402 24.7748 9.66839 22.5371C8.58292 21.4187 7.59397 20.2127 6.87976 18.9901C6.16321 17.7636 5.74744 16.5622 5.74744 15.4403V5.83576C5.74744 5.49961 5.92836 5.2828 6.20853 5.11502C6.34896 5.03092 6.49525 4.97329 6.60984 4.93678C6.66593 4.91889 6.71141 4.90702 6.7407 4.90003C6.75527 4.89655 6.7656 4.89434 6.77097 4.89323L6.77486 4.89245ZM6.77212 4.89294L6.77206 4.89295C6.77209 4.89294 6.77213 4.89294 6.77217 4.89294L6.77212 4.89294Z" stroke="#6F7882" stroke-linecap="round" stroke-linejoin="round"/>
</svg>
